<?xml version="1.0" encoding="utf-8"?>
<!-- Generator: Adobe Illustrator 25.0.1, SVG Export Plug-In . SVG Version: 6.00 Build 0)  -->
<svg version="1.1" id="Capa_1" xmlns="http://www.w3.org/2000/svg" xmlns:xlink="http://www.w3.org/1999/xlink" x="0px" y="0px"
	 viewBox="0 0 25.44 25.81" style="enable-background:new 0 0 25.44 25.81;" xml:space="preserve">
<style type="text/css">
	.st0{fill-rule:evenodd;clip-rule:evenodd;fill:#ABCC59;}
	.st1{fill-rule:evenodd;clip-rule:evenodd;fill:#009CDE;}
</style>
<g>
	<path class="st0" d="M12.73,22.97c-0.03,0.96-0.01,1.96,0.19,2.85l-0.26,0c-7.13,0-12.67-5.78-12.67-12.91
		c0-7,5.57-12.7,12.52-12.9c0.56,2.61-0.09,6.06-1.06,7.3c-1.35,1.73-1.05,4.12-1.05,5.78l2.11-1.93v3.8l-3.3,3.46l-3.83-3.83v-3.68
		l2.26,2.2c0,0-0.4-4.68,0.65-5.88C9.88,5.41,9.94,3.85,9.9,3.29c-4.1,1.27-7.07,5.1-7.07,9.61c0,5.5,4.29,9.97,9.76,10.07
		L12.73,22.97z"/>
	<path class="st1" d="M12.9,0c7.13,0,12.54,5.78,12.54,12.91c0,7-5.57,12.7-12.52,12.9c-0.62-2.54,0.09-6.06,1.06-7.3
		c1.35-1.73,1.05-4.13,1.05-5.78l-2.14,1.91v-3.79l3.32-3.45l3.83,3.83v3.68l-2.26-2.21c0,0,0.4,4.68-0.65,5.89
		c-1.59,1.82-1.66,3.38-1.61,3.94c4.1-1.28,7.07-5.1,7.07-9.61c0-5.5-4.17-9.97-9.64-10.07l-0.27,0c0,0,0.1-1.61-0.2-2.85H12.9z"/>
</g>
</svg>
