<svg id="svg" version="1.1" xmlns="http://www.w3.org/2000/svg" xmlns:xlink="http://www.w3.org/1999/xlink" width="400" height="89.79591836734694" viewBox="0, 0, 400,89.79591836734694"><g id="svgg"><path id="path0" d="M0.000 44.833 L 0.000 89.667 2.583 89.667 L 5.167 89.667 5.167 89.167 C 5.167 88.681,5.189 88.667,5.967 88.667 C 6.407 88.667,6.857 88.577,6.967 88.467 C 7.313 88.121,7.251 1.608,6.905 1.262 C 6.746 1.103,6.354 1.000,5.905 1.000 C 5.196 1.000,5.167 0.980,5.167 0.500 L 5.167 0.000 2.583 0.000 L 0.000 0.000 0.000 44.833 M17.333 14.486 C 17.333 22.454,17.379 29.091,17.434 29.236 C 17.520 29.460,17.941 29.504,20.226 29.524 C 21.706 29.537,22.617 29.593,22.250 29.649 L 21.583 29.750 21.533 30.708 L 21.483 31.667 20.511 31.667 C 19.429 31.667,19.340 31.771,19.336 33.042 L 19.333 33.667 18.533 33.667 C 17.254 33.667,17.333 32.999,17.333 43.711 C 17.333 54.510,17.275 54.000,18.506 54.000 L 19.333 54.000 19.333 54.736 C 19.333 55.920,19.408 56.000,20.510 56.000 L 21.483 56.000 21.533 56.958 L 21.583 57.917 39.167 57.964 C 59.795 58.020,57.817 58.160,58.076 56.625 C 58.181 56.005,58.188 56.000,58.974 56.000 C 60.099 56.000,60.167 55.876,60.167 53.823 L 60.167 52.046 61.004 51.947 C 61.464 51.893,61.914 51.803,62.004 51.748 C 62.106 51.684,62.167 48.731,62.167 43.819 L 62.167 35.992 61.739 35.829 C 61.504 35.740,61.054 35.667,60.739 35.667 L 60.167 35.667 60.167 33.989 C 60.167 31.866,60.068 31.667,59.014 31.667 C 58.142 31.667,58.008 31.506,58.002 30.464 C 57.998 29.661,57.675 29.609,52.218 29.531 C 49.451 29.491,46.918 29.510,46.590 29.571 L 45.994 29.683 46.039 33.633 L 46.083 37.583 50.125 37.628 L 54.167 37.673 54.167 43.836 L 54.167 50.000 39.833 50.000 L 25.500 50.000 25.500 49.078 C 25.500 48.069,25.514 48.083,24.292 47.919 L 23.500 47.813 23.500 43.740 L 23.500 39.667 24.399 39.667 C 25.417 39.667,25.500 39.572,25.500 38.403 L 25.500 37.667 28.383 37.667 C 31.651 37.667,31.667 37.661,31.667 36.467 L 31.667 35.667 32.480 35.667 C 32.999 35.667,33.367 35.576,33.500 35.416 C 33.778 35.082,33.660 30.260,33.367 29.967 C 33.053 29.653,31.221 29.518,27.167 29.509 L 23.417 29.500 23.462 23.417 L 23.508 17.333 42.515 17.333 C 55.298 17.333,61.627 17.277,61.844 17.161 C 62.203 16.969,62.342 12.035,62.004 11.500 C 61.865 11.281,59.499 11.244,42.673 11.203 L 23.500 11.156 23.500 5.578 L 23.500 0.000 20.417 0.000 L 17.333 0.000 17.333 14.486 M127.588 1.292 C 127.529 2.002,127.465 2.696,127.447 2.833 C 127.423 3.011,127.166 3.098,126.557 3.133 C 125.443 3.198,125.505 2.818,125.502 9.625 L 125.500 15.333 124.700 15.333 C 123.446 15.333,123.500 15.049,123.500 21.617 L 123.500 27.500 122.822 27.500 C 121.412 27.500,121.500 27.077,121.500 33.831 L 121.500 39.817 120.542 39.867 L 119.583 39.917 119.471 40.667 C 119.409 41.079,119.352 43.798,119.346 46.708 L 119.333 52.000 118.506 52.000 C 117.306 52.000,117.333 51.850,117.333 58.382 L 117.333 64.120 116.496 64.219 C 116.036 64.274,115.586 64.364,115.496 64.419 C 115.395 64.481,115.333 66.791,115.333 70.502 L 115.333 76.483 114.375 76.533 L 113.417 76.583 113.373 83.125 L 113.329 89.667 117.415 89.667 L 121.500 89.667 121.500 89.167 C 121.500 88.681,121.522 88.667,122.300 88.667 C 123.523 88.667,123.500 88.747,123.500 84.405 L 123.500 80.543 124.264 80.457 C 125.462 80.322,125.408 80.601,125.500 74.117 L 125.583 68.250 126.295 68.155 C 127.460 68.000,127.412 68.260,127.464 61.846 L 127.512 56.041 128.336 55.932 C 129.617 55.762,129.576 56.000,129.637 48.458 L 129.690 41.833 130.417 41.833 C 131.713 41.833,131.667 42.070,131.667 35.405 L 131.667 29.500 132.566 29.500 C 133.741 29.500,133.667 29.928,133.667 23.153 L 133.667 17.333 134.403 17.333 C 135.728 17.333,135.667 17.488,135.667 14.149 L 135.667 11.167 137.736 11.167 L 139.805 11.167 139.861 13.891 C 139.924 16.971,139.978 17.121,141.055 17.199 L 141.750 17.250 141.833 23.215 C 141.926 29.858,141.852 29.493,143.115 29.497 L 143.814 29.500 143.865 35.409 C 143.923 42.001,143.856 41.670,145.157 41.795 L 146.000 41.876 146.000 47.738 C 146.000 54.281,145.946 54.000,147.198 54.000 L 147.996 54.000 148.040 60.042 L 148.083 66.083 149.030 66.133 L 149.977 66.183 150.030 72.983 C 150.088 80.363,150.084 80.333,151.007 80.333 C 152.036 80.333,152.000 80.188,152.000 84.279 C 152.000 88.683,151.995 88.667,153.256 88.667 C 154.157 88.667,154.167 88.672,154.167 89.167 L 154.167 89.667 158.169 89.667 L 162.171 89.667 162.127 83.125 L 162.083 76.583 161.125 76.533 L 160.167 76.483 160.167 70.498 C 160.167 63.744,160.255 64.167,158.844 64.167 L 158.167 64.167 158.167 58.283 C 158.167 51.716,158.221 52.000,156.967 52.000 L 156.167 52.000 156.167 46.180 C 156.167 39.361,156.255 39.833,154.982 39.833 L 154.000 39.833 154.000 33.768 C 154.000 26.980,154.105 27.500,152.738 27.500 L 152.004 27.500 151.960 21.458 L 151.917 15.417 150.958 15.367 L 150.000 15.317 150.000 9.505 C 150.000 3.266,149.991 3.167,149.420 3.167 C 149.212 3.167,148.807 3.120,148.521 3.063 L 148.000 2.958 148.000 1.479 L 148.000 0.000 137.848 0.000 L 127.695 0.000 127.588 1.292 M394.942 1.125 C 394.884 1.744,394.835 21.919,394.835 45.958 L 394.833 89.667 397.417 89.667 L 400.000 89.667 400.000 44.833 L 400.000 0.000 397.524 0.000 L 395.048 0.000 394.942 1.125 M79.042 19.505 C 78.724 19.633,78.667 19.781,78.667 20.479 L 78.667 21.302 77.042 21.410 C 74.861 21.555,74.738 21.616,74.604 22.631 L 74.494 23.457 73.733 23.543 C 73.314 23.590,72.884 23.716,72.777 23.823 C 72.632 23.968,72.583 30.264,72.583 49.133 L 72.583 74.250 73.542 74.300 L 74.500 74.350 74.502 75.550 C 74.506 78.219,74.559 78.281,76.986 78.440 L 78.667 78.550 78.667 79.180 C 78.667 80.555,78.475 80.536,91.806 80.469 L 102.363 80.417 102.681 80.023 C 102.857 79.807,103.000 79.387,103.000 79.090 L 103.000 78.550 104.653 78.442 C 107.094 78.282,106.948 78.427,107.108 75.994 L 107.216 74.349 108.150 74.299 L 109.083 74.250 109.130 66.583 C 109.155 62.367,109.135 58.748,109.085 58.542 C 108.994 58.167,102.935 57.943,101.720 58.269 C 101.146 58.422,101.118 58.649,101.038 63.605 L 100.963 68.294 100.211 68.379 C 99.359 68.475,99.220 68.627,99.069 69.625 C 98.962 70.332,98.961 70.333,98.243 70.333 C 97.310 70.333,97.000 70.648,97.000 71.595 L 97.000 72.333 90.833 72.333 L 84.667 72.333 84.667 71.595 C 84.667 70.648,84.356 70.333,83.423 70.333 C 82.644 70.333,82.500 70.177,82.500 69.329 C 82.500 68.742,81.972 68.333,81.213 68.333 L 80.667 68.333 80.667 48.917 L 80.667 29.500 82.156 29.500 C 84.212 29.500,84.438 29.392,84.582 28.344 L 84.698 27.500 90.827 27.500 L 96.957 27.500 97.043 28.264 C 97.165 29.344,97.283 29.409,99.258 29.474 L 101.000 29.530 101.000 34.171 C 101.000 36.783,101.071 38.999,101.163 39.239 L 101.325 39.667 105.246 39.667 L 109.167 39.667 109.166 32.292 C 109.165 23.333,109.197 23.509,107.542 23.502 C 107.012 23.500,107.000 23.483,107.000 22.762 C 107.000 21.853,106.683 21.500,105.863 21.499 C 105.526 21.498,104.744 21.450,104.125 21.391 L 103.000 21.285 103.000 20.472 C 103.000 19.752,102.951 19.640,102.572 19.496 C 102.024 19.287,79.562 19.296,79.042 19.505 M168.540 19.526 C 168.236 19.831,168.237 79.805,168.542 80.221 C 168.730 80.478,169.127 80.502,172.583 80.462 L 176.417 80.417 176.459 68.208 L 176.502 56.000 182.668 56.000 L 188.833 56.000 188.833 57.813 C 188.833 59.869,188.873 59.943,190.044 60.104 L 190.805 60.208 190.861 62.027 C 190.924 64.077,190.973 64.160,192.125 64.164 L 192.833 64.167 192.853 65.625 C 192.884 67.946,192.930 68.056,193.937 68.235 L 194.790 68.387 194.894 69.485 C 194.951 70.089,194.998 70.899,194.999 71.286 C 195.000 72.110,195.282 72.333,196.322 72.333 L 197.000 72.333 197.000 74.244 C 197.000 76.407,197.054 76.500,198.322 76.500 L 199.000 76.500 199.000 78.238 C 199.000 80.719,198.605 80.544,204.022 80.474 C 209.564 80.403,209.083 80.695,209.083 77.397 C 209.083 74.663,209.013 74.500,207.826 74.500 L 207.216 74.500 207.100 72.716 C 206.969 70.677,206.906 70.556,205.903 70.406 L 205.167 70.295 205.154 69.439 C 205.120 66.989,204.802 66.333,203.650 66.333 L 203.029 66.333 202.973 64.494 C 202.911 62.453,202.898 62.431,201.744 62.258 L 201.043 62.153 200.965 60.403 C 200.877 58.427,200.824 58.329,199.764 58.209 L 199.000 58.123 199.000 57.062 L 199.000 56.000 199.738 56.000 C 200.691 56.000,201.000 55.691,201.000 54.738 L 201.000 54.000 202.060 54.000 C 204.849 54.000,204.960 53.912,205.113 51.586 L 205.217 50.000 205.992 50.000 C 207.250 50.000,207.167 50.864,207.167 37.814 C 207.167 24.448,207.260 25.500,206.074 25.500 L 205.183 25.500 205.133 24.542 L 205.083 23.583 204.042 23.534 L 203.000 23.484 203.000 22.508 L 203.000 21.533 202.008 21.418 L 201.016 21.302 200.906 20.573 C 200.846 20.172,200.681 19.748,200.540 19.630 C 200.167 19.321,168.848 19.219,168.540 19.526 M211.917 19.479 L 211.417 19.586 211.289 21.168 C 211.007 24.667,211.246 25.493,212.542 25.497 L 213.333 25.500 213.333 26.399 C 213.333 27.580,212.800 27.500,220.675 27.500 L 227.490 27.500 227.537 53.742 C 227.575 75.010,227.624 80.024,227.800 80.200 C 228.042 80.442,236.201 80.524,237.023 80.293 C 237.757 80.087,237.749 80.391,237.795 53.542 L 237.840 27.500 244.657 27.500 C 252.533 27.500,252.000 27.580,252.000 26.399 L 252.000 25.500 252.792 25.497 C 254.044 25.493,254.014 25.574,253.962 22.407 L 253.917 19.589 253.250 19.471 C 252.423 19.324,212.606 19.332,211.917 19.479 M258.458 19.512 C 258.183 19.674,258.167 21.101,258.167 45.746 C 258.167 74.938,258.045 72.333,259.410 72.333 L 260.130 72.333 260.192 74.161 C 260.264 76.252,260.318 76.349,261.482 76.461 L 262.317 76.541 262.367 77.395 C 262.426 78.407,262.523 78.448,264.875 78.480 L 266.333 78.500 266.333 79.135 C 266.333 80.524,265.322 80.417,278.461 80.417 C 291.383 80.417,290.611 80.488,290.699 79.279 L 290.750 78.583 292.500 78.451 C 294.484 78.301,294.680 78.190,294.821 77.131 C 294.914 76.435,294.935 76.414,295.628 76.322 C 296.528 76.202,296.686 76.037,296.849 75.050 C 297.028 73.961,297.031 19.808,296.852 19.525 C 296.633 19.178,289.221 19.312,288.996 19.667 C 288.899 19.821,288.837 29.162,288.836 44.103 L 288.833 68.290 288.052 68.378 C 287.129 68.482,286.833 68.803,286.833 69.699 C 286.833 70.330,286.829 70.333,286.156 70.333 C 285.131 70.333,284.882 70.540,284.750 71.497 L 284.635 72.333 278.484 72.333 L 272.333 72.333 272.333 71.699 C 272.333 70.572,272.105 70.435,270.100 70.361 L 268.333 70.296 268.333 68.578 C 268.333 66.333,268.334 66.333,267.233 66.333 L 266.334 66.333 266.292 42.875 L 266.250 19.417 262.500 19.378 C 260.157 19.354,258.641 19.404,258.458 19.512 M329.875 19.444 C 329.710 19.510,329.667 24.764,329.667 44.931 L 329.667 70.333 328.684 70.333 C 327.574 70.333,327.500 70.412,327.500 71.597 L 327.500 72.333 321.417 72.333 L 315.333 72.333 315.333 71.656 C 315.333 70.572,315.122 70.333,314.161 70.333 L 313.333 70.333 313.331 68.792 C 313.328 66.727,313.170 66.432,312.038 66.366 L 311.167 66.316 311.167 63.241 L 311.167 60.167 307.678 60.167 C 304.091 60.167,303.466 60.253,303.258 60.779 C 303.076 61.240,302.951 70.286,303.112 71.333 L 303.253 72.250 304.210 72.300 L 305.167 72.350 305.167 74.252 C 305.167 76.406,305.222 76.500,306.489 76.500 L 307.167 76.500 307.167 77.327 C 307.167 78.402,307.359 78.500,309.470 78.500 L 311.129 78.500 311.273 79.458 L 311.417 80.417 321.250 80.457 C 332.042 80.500,331.511 80.557,331.627 79.351 L 331.709 78.500 333.230 78.498 C 335.236 78.494,335.558 78.329,335.667 77.246 L 335.750 76.417 336.462 76.322 C 337.361 76.202,337.520 76.037,337.682 75.050 C 337.912 73.648,337.865 19.765,337.633 19.533 C 337.433 19.333,330.351 19.252,329.875 19.444 M358.375 19.523 C 358.233 19.666,358.167 20.333,358.167 21.617 L 358.167 23.500 357.268 23.500 C 356.129 23.500,356.167 23.387,356.167 26.847 L 356.167 29.667 355.268 29.667 C 354.131 29.667,354.167 29.562,354.167 32.925 L 354.167 35.655 353.327 35.767 C 352.148 35.923,352.128 35.991,352.034 40.204 L 351.954 43.833 351.177 43.833 C 350.009 43.833,350.000 43.858,350.000 47.117 L 350.000 50.000 349.101 50.000 C 347.965 50.000,348.000 49.897,348.000 53.244 C 348.000 56.279,348.052 56.159,346.726 56.164 C 346.021 56.167,346.000 56.260,346.000 59.415 L 346.000 62.135 345.164 62.250 C 344.044 62.404,343.998 62.528,343.881 65.675 L 343.782 68.333 343.243 68.333 C 342.946 68.333,342.527 68.477,342.310 68.652 L 341.917 68.970 341.917 74.693 L 341.917 80.417 345.700 80.417 C 350.340 80.417,349.902 80.750,349.969 77.159 L 350.022 74.333 350.834 74.333 C 351.912 74.333,351.904 74.355,352.000 71.083 L 352.083 68.250 352.816 68.152 C 353.862 68.013,354.000 67.738,354.000 65.801 L 354.000 64.167 363.239 64.167 L 372.477 64.167 372.530 68.006 C 372.589 72.268,372.527 72.058,373.778 72.245 L 374.500 72.354 374.500 75.021 C 374.500 78.154,374.544 78.284,375.670 78.433 L 376.500 78.543 376.503 79.313 C 376.507 80.563,376.320 80.511,380.678 80.461 L 384.583 80.417 384.628 76.583 C 384.679 72.246,384.705 72.333,383.385 72.333 L 382.667 72.333 382.667 69.597 C 382.667 66.236,382.699 66.333,381.587 66.333 L 380.710 66.333 380.635 62.560 C 380.551 58.273,380.515 58.167,379.148 58.167 L 378.500 58.167 378.500 55.256 C 378.500 51.971,378.512 52.000,377.178 52.000 L 376.500 52.000 376.500 49.322 C 376.500 46.178,376.456 46.050,375.330 45.901 L 374.500 45.790 374.500 43.134 C 374.500 39.959,374.455 39.833,373.327 39.833 L 372.500 39.833 372.500 37.072 C 372.500 33.743,372.472 33.667,371.244 33.667 L 370.333 33.667 370.333 30.094 C 370.333 25.818,370.313 25.741,369.177 25.585 L 368.333 25.469 368.333 22.671 C 368.333 20.274,368.294 19.841,368.058 19.645 C 367.669 19.322,358.687 19.208,358.375 19.523 M195.033 28.458 L 195.083 29.417 196.042 29.467 L 197.000 29.517 197.000 30.321 C 197.000 31.276,197.178 31.462,198.225 31.606 L 199.000 31.712 199.000 37.754 L 199.000 43.795 198.292 43.903 C 197.273 44.057,197.131 44.198,197.039 45.149 L 196.958 46.000 196.241 46.000 C 195.339 46.000,195.000 46.322,195.000 47.179 L 195.000 47.833 185.750 47.833 L 176.500 47.833 176.500 37.667 L 176.500 27.500 185.742 27.500 L 194.983 27.500 195.033 28.458 M363.375 37.633 L 364.333 37.683 364.336 41.217 C 364.339 45.365,364.377 45.510,365.545 45.736 L 366.333 45.889 366.333 48.434 C 366.333 51.616,366.389 51.785,367.493 51.932 L 368.333 52.043 368.333 54.021 L 368.333 56.000 362.250 56.000 L 356.167 56.000 356.167 55.000 L 356.167 54.000 356.905 54.000 C 358.127 54.000,358.167 53.894,358.167 50.655 L 358.167 47.833 359.066 47.833 C 360.202 47.833,360.167 47.936,360.167 44.591 L 360.167 41.877 360.917 41.792 C 362.165 41.651,362.163 41.658,362.195 38.438 C 362.212 36.691,362.260 35.971,362.320 36.583 L 362.417 37.583 363.375 37.633 M21.708 62.275 C 21.578 62.329,21.500 62.699,21.500 63.264 L 21.500 64.167 20.708 64.169 C 19.616 64.173,19.459 64.317,19.369 65.401 L 19.292 66.333 18.688 66.336 C 17.322 66.342,17.355 66.032,17.343 78.958 L 17.333 89.667 39.754 89.667 L 62.176 89.667 62.129 87.208 L 62.083 84.750 61.125 84.700 L 60.167 84.650 60.167 83.738 C 60.167 82.464,60.384 82.500,52.663 82.500 L 46.014 82.500 45.965 75.692 C 45.910 67.989,45.972 68.333,44.646 68.333 L 43.833 68.333 43.833 66.413 C 43.833 64.266,43.771 64.167,42.427 64.167 C 41.887 64.167,41.874 64.150,41.795 63.330 C 41.751 62.869,41.660 62.438,41.594 62.371 C 41.457 62.235,22.033 62.141,21.708 62.275 M33.732 68.597 C 33.788 68.742,33.833 69.077,33.833 69.341 C 33.833 70.005,34.180 70.144,36.152 70.273 L 37.833 70.383 37.833 76.442 L 37.833 82.500 30.667 82.500 L 23.500 82.500 23.500 78.438 L 23.500 74.377 24.258 74.291 C 25.317 74.172,25.489 73.791,25.496 71.550 L 25.500 70.350 26.458 70.300 L 27.417 70.250 27.467 69.292 L 27.517 68.333 30.574 68.333 C 33.208 68.333,33.645 68.370,33.732 68.597 " stroke="none" fill="#042494" fill-rule="evenodd"></path><path id="path1" d="" stroke="none" fill="#082494" fill-rule="evenodd"></path><path id="path2" d="" stroke="none" fill="#082494" fill-rule="evenodd"></path><path id="path3" d="" stroke="none" fill="#082494" fill-rule="evenodd"></path><path id="path4" d="" stroke="none" fill="#082494" fill-rule="evenodd"></path></g></svg>