<?xml version="1.0" standalone="no"?>
<!DOCTYPE svg PUBLIC "-//W3C//DTD SVG 20010904//EN"
 "http://www.w3.org/TR/2001/REC-SVG-20010904/DTD/svg10.dtd">
<svg version="1.0" xmlns="http://www.w3.org/2000/svg"
 width="960.000000pt" height="540.000000pt" viewBox="0 0 960.000000 540.000000"
 preserveAspectRatio="xMidYMid meet">

<g transform="translate(0.000000,540.000000) scale(0.100000,-0.100000)"
fill="#000000" stroke="none">
<path d="M1582 4828 c-7 -7 -12 -26 -12 -43 0 -17 5 -36 12 -43 14 -14 62 -16
53 -2 -3 6 -15 10 -26 10 -17 0 -20 6 -17 33 2 24 8 33 26 35 12 2 20 8 17 13
-9 13 -39 11 -53 -3z"/>
<path d="M1660 4786 c0 -31 5 -56 10 -56 6 0 10 22 10 49 0 28 -4 53 -10 56
-6 4 -10 -15 -10 -49z"/>
<path d="M1700 4830 c0 -5 5 -10 10 -10 6 0 10 5 10 10 0 6 -4 10 -10 10 -5 0
-10 -4 -10 -10z"/>
<path d="M2022 4785 c0 -43 2 -51 7 -30 3 17 13 30 21 30 8 0 18 -13 21 -30 6
-29 7 -29 8 8 1 31 -3 39 -23 47 -13 5 -26 15 -29 22 -3 7 -5 -14 -5 -47z"/>
<path d="M2322 4828 c-19 -19 -14 -38 13 -48 30 -11 33 -30 6 -30 -11 0 -23
-5 -26 -11 -5 -7 5 -9 26 -7 45 4 54 42 15 60 -33 14 -33 28 0 28 14 0 23 4
19 10 -8 14 -38 13 -53 -2z"/>
<path d="M2610 4786 c0 -31 5 -56 10 -56 6 0 10 22 10 49 0 28 -4 53 -10 56
-6 4 -10 -15 -10 -49z"/>
<path d="M2650 4785 c0 -30 5 -55 10 -55 6 0 10 25 10 55 0 30 -4 55 -10 55
-5 0 -10 -25 -10 -55z"/>
<path d="M1957 4817 c-10 -25 8 -82 27 -85 15 -3 16 -1 4 17 -10 16 -10 25 -2
39 9 13 8 20 -2 30 -17 15 -21 15 -27 -1z"/>
<path d="M1700 4770 c0 -22 5 -40 10 -40 6 0 10 18 10 40 0 22 -4 40 -10 40
-5 0 -10 -18 -10 -40z"/>
<path d="M1747 4804 c-11 -11 -8 -74 3 -74 6 0 10 14 10 30 0 20 5 30 15 30
10 0 15 -10 15 -30 0 -16 5 -30 10 -30 6 0 10 14 10 31 0 39 22 34 32 -7 5
-25 6 -23 5 11 l-2 40 -45 3 c-25 2 -49 0 -53 -4z"/>
<path d="M1880 4800 c0 -5 10 -10 23 -10 22 0 21 -1 -3 -13 -36 -18 -32 -41 9
-45 28 -3 33 -1 27 13 -3 9 -6 28 -6 41 0 19 -5 24 -25 24 -14 0 -25 -4 -25
-10z m40 -44 c0 -11 -19 -15 -25 -6 -3 5 1 10 9 10 9 0 16 -2 16 -4z"/>
<path d="M2110 4791 c-15 -29 4 -63 33 -59 18 2 22 10 22 38 0 28 -4 36 -22
38 -14 2 -26 -4 -33 -17z m43 -15 c7 -16 -1 -26 -20 -26 -7 0 -13 9 -13 20 0
23 25 27 33 6z"/>
<path d="M2197 4803 c-11 -10 -8 -73 3 -73 6 0 10 14 10 30 0 20 5 30 15 30
10 0 15 -10 15 -30 0 -16 5 -30 10 -30 11 0 13 39 4 64 -6 16 -45 22 -57 9z"/>
<path d="M2410 4796 c-20 -26 -8 -61 23 -64 15 -2 27 1 27 7 0 6 -10 12 -22
12 -21 1 -21 2 -3 6 31 8 40 20 25 38 -16 19 -34 19 -50 1z m37 -12 c-3 -3
-12 -4 -19 -1 -8 3 -5 6 6 6 11 1 17 -2 13 -5z"/>
<path d="M2485 4778 c9 -42 13 -48 30 -48 8 0 18 15 23 33 12 44 1 59 -13 17
l-12 -34 -11 32 c-14 42 -26 41 -17 0z"/>
<path d="M2573 4770 c0 -25 2 -35 4 -22 2 12 2 32 0 45 -2 12 -4 2 -4 -23z"/>
<path d="M2700 4801 c0 -6 8 -11 18 -12 13 0 12 -3 -5 -11 -13 -6 -23 -19 -23
-30 0 -14 8 -18 33 -18 33 0 34 0 28 38 -5 28 -11 38 -29 40 -12 2 -22 -1 -22
-7z m30 -47 c0 -8 -5 -12 -10 -9 -6 4 -8 11 -5 16 9 14 15 11 15 -7z"/>
<path d="M1206 4517 c3 -10 9 -15 12 -12 3 3 0 11 -7 18 -10 9 -11 8 -5 -6z"/>
<path d="M2030 4520 c12 -7 12 -12 2 -22 -15 -15 -16 -28 0 -28 6 0 8 3 5 7
-4 3 -2 12 4 19 12 15 4 34 -14 34 -7 0 -6 -4 3 -10z"/>
<path d="M2212 4516 c7 -8 15 -12 17 -11 5 6 -10 25 -20 25 -5 0 -4 -6 3 -14z"/>
<path d="M2296 4512 c7 -4 14 -16 17 -27 4 -15 5 -14 6 8 1 20 -4 27 -16 27
-12 0 -14 -3 -7 -8z"/>
<path d="M2853 4515 c4 -5 0 -19 -8 -32 -14 -21 -14 -23 1 -23 10 0 14 3 11 6
-3 4 -2 15 3 25 7 12 6 20 -2 25 -7 4 -10 3 -5 -1z"/>
<path d="M2924 4505 c-8 -21 2 -45 20 -45 19 0 28 28 16 48 -8 14 -9 13 -7 -7
1 -13 -4 -26 -12 -29 -10 -3 -13 2 -9 22 6 28 1 35 -8 11z"/>
<path d="M3036 4503 c-3 -10 -9 -24 -12 -30 -3 -7 0 -13 8 -13 7 0 14 13 15
30 2 34 -2 38 -11 13z"/>
<path d="M3123 4490 c-8 -23 -8 -30 0 -30 7 0 13 14 14 30 3 38 0 38 -14 0z"/>
<path d="M1307 4491 c-4 -17 -3 -21 5 -13 5 5 8 16 6 23 -3 8 -7 3 -11 -10z"/>
<path d="M1460 4496 c0 -8 4 -17 9 -20 5 -4 7 3 4 14 -6 23 -13 26 -13 6z"/>
<path d="M2100 4496 c0 -8 4 -17 9 -20 5 -4 7 3 4 14 -6 23 -13 26 -13 6z"/>
<path d="M1387 4493 c-10 -9 -9 -23 1 -23 5 0 9 7 9 15 0 17 -1 18 -10 8z"/>
<path d="M1195 4480 c-3 -5 -1 -10 4 -10 6 0 11 5 11 10 0 6 -2 10 -4 10 -3 0
-8 -4 -11 -10z"/>
<path d="M2133 4338 c-13 -6 -25 -19 -28 -29 -6 -18 -25 -19 -353 -21 l-347
-3 342 -5 341 -5 22 -27 c15 -19 31 -28 51 -28 28 0 69 30 69 50 0 6 119 10
338 10 l337 0 17 -30 c24 -41 77 -43 108 -2 l22 27 291 5 292 5 -297 3 c-281
2 -297 3 -303 21 -9 29 -56 45 -88 30 -15 -7 -29 -20 -32 -31 -6 -17 -24 -18
-342 -18 l-335 0 -28 30 c-30 32 -42 35 -77 18z"/>
<path d="M837 4283 c79 -2 207 -2 285 0 79 1 15 3 -142 3 -157 0 -221 -2 -143
-3z"/>
<path d="M1010 4074 c0 -14 4 -23 9 -20 5 3 7 15 4 26 -7 28 -13 25 -13 -6z"/>
<path d="M1041 4084 c0 -11 3 -14 6 -6 3 7 2 16 -1 19 -3 4 -6 -2 -5 -13z"/>
<path d="M2276 4087 c-11 -8 -16 -20 -13 -28 4 -10 6 -9 6 4 1 9 5 17 10 17 5
0 12 -8 14 -17 3 -11 5 -7 6 10 1 31 1 31 -23 14z"/>
<path d="M3097 4093 c-3 -5 -1 -17 4 -28 7 -17 8 -17 8 8 1 27 -4 34 -12 20z"/>
<path d="M1155 4080 c3 -5 8 -10 11 -10 2 0 4 5 4 10 0 6 -5 10 -11 10 -5 0
-7 -4 -4 -10z"/>
<path d="M1622 4070 c0 -14 2 -19 5 -12 2 6 2 18 0 25 -3 6 -5 1 -5 -13z"/>
<path d="M2343 4075 c-3 -9 -3 -18 -1 -21 3 -3 8 4 11 16 6 23 -1 27 -10 5z"/>
<path d="M2413 4075 c-3 -9 -3 -18 -1 -21 3 -3 8 4 11 16 6 23 -1 27 -10 5z"/>
<path d="M2463 4075 c-3 -9 -3 -18 -1 -21 3 -3 8 4 11 16 6 23 -1 27 -10 5z"/>
<path d="M2787 4083 c-4 -3 -7 -13 -7 -22 1 -13 3 -13 11 2 11 19 8 33 -4 20z"/>
<path d="M2822 4070 c0 -14 2 -19 5 -12 2 6 2 18 0 25 -3 6 -5 1 -5 -13z"/>
<path d="M2917 4083 c-4 -3 -7 -13 -7 -22 1 -13 3 -13 11 2 11 19 8 33 -4 20z"/>
<path d="M2972 4070 c0 -14 2 -19 5 -12 2 6 2 18 0 25 -3 6 -5 1 -5 -13z"/>
<path d="M3153 4075 c-3 -9 -3 -18 -1 -21 3 -3 8 4 11 16 6 23 -1 27 -10 5z"/>
<path d="M3244 4070 c0 -13 4 -16 10 -10 7 7 7 13 0 20 -6 6 -10 3 -10 -10z"/>
<path d="M3272 4070 c0 -14 2 -19 5 -12 2 6 2 18 0 25 -3 6 -5 1 -5 -13z"/>
<path d="M3302 4070 c0 -14 2 -19 5 -12 2 6 2 18 0 25 -3 6 -5 1 -5 -13z"/>
<path d="M1210 4065 c0 -8 4 -15 9 -15 5 0 11 7 15 15 3 9 0 15 -9 15 -8 0
-15 -7 -15 -15z"/>
<path d="M1307 4067 c-3 -8 1 -14 9 -14 8 0 14 6 14 14 0 7 -4 13 -9 13 -5 0
-11 -6 -14 -13z"/>
<path d="M1370 4065 c0 -8 3 -15 6 -15 3 0 12 7 20 15 14 13 13 15 -5 15 -12
0 -21 -6 -21 -15z"/>
<path d="M1846 4067 c3 -10 9 -15 12 -12 3 3 0 11 -7 18 -10 9 -11 8 -5 -6z"/>
<path d="M1881 4064 c0 -11 3 -14 6 -6 3 7 2 16 -1 19 -3 4 -6 -2 -5 -13z"/>
<path d="M1930 4053 c0 -21 3 -24 9 -14 5 8 7 20 4 28 -8 21 -13 15 -13 -14z"/>
<path d="M2011 4064 c0 -11 3 -14 6 -6 3 7 2 16 -1 19 -3 4 -6 -2 -5 -13z"/>
<path d="M2161 4064 c0 -11 3 -14 6 -6 3 7 2 16 -1 19 -3 4 -6 -2 -5 -13z"/>
<path d="M2210 4065 c0 -8 3 -15 6 -15 3 0 12 7 20 15 14 13 13 15 -5 15 -12
0 -21 -6 -21 -15z"/>
<path d="M2321 4064 c0 -11 3 -14 6 -6 3 7 2 16 -1 19 -3 4 -6 -2 -5 -13z"/>
<path d="M2441 4064 c0 -11 3 -14 6 -6 3 7 2 16 -1 19 -3 4 -6 -2 -5 -13z"/>
<path d="M2491 4064 c0 -11 3 -14 6 -6 3 7 2 16 -1 19 -3 4 -6 -2 -5 -13z"/>
<path d="M2730 4065 c0 -8 3 -15 6 -15 3 0 12 7 20 15 14 13 13 15 -5 15 -12
0 -21 -6 -21 -15z"/>
<path d="M2860 4065 c0 -8 3 -15 6 -15 3 0 12 7 20 15 14 13 13 15 -5 15 -12
0 -21 -6 -21 -15z"/>
<path d="M3020 4065 c0 -8 5 -15 10 -15 6 0 10 5 10 11 0 5 5 7 10 4 6 -3 10
-1 10 4 0 6 -9 11 -20 11 -11 0 -20 -7 -20 -15z"/>
<path d="M3071 4064 c0 -11 3 -14 6 -6 3 7 2 16 -1 19 -3 4 -6 -2 -5 -13z"/>
<path d="M3121 4064 c0 -11 3 -14 6 -6 3 7 2 16 -1 19 -3 4 -6 -2 -5 -13z"/>
<path d="M3191 4064 c0 -11 3 -14 6 -6 3 7 2 16 -1 19 -3 4 -6 -2 -5 -13z"/>
<path d="M3221 4064 c0 -11 3 -14 6 -6 3 7 2 16 -1 19 -3 4 -6 -2 -5 -13z"/>
</g>
</svg>
